<svg xmlns="http://www.w3.org/2000/svg" viewBox="0 0 900 18" width="900" height="18" shape-rendering="crispEdges">
  <defs>
    <linearGradient id="l" x1="0" x2="1"><stop offset="0" stop-color="#ff3d8b" stop-opacity="0"/><stop offset="1" stop-color="#ff3d8b"/></linearGradient>
    <linearGradient id="r" x1="0" x2="1"><stop offset="0" stop-color="#ff3d8b"/><stop offset="1" stop-color="#ff3d8b" stop-opacity="0"/></linearGradient>
  </defs>
  <rect x="0" y="8" width="400" height="2" fill="url(#l)"/>
  <rect x="500" y="8" width="400" height="2" fill="url(#r)"/>
  <rect x="419" y="0" width="3" height="3" fill="#c9327a"/><rect x="422" y="0" width="3" height="3" fill="#c9327a"/><rect x="428" y="0" width="3" height="3" fill="#c9327a"/><rect x="431" y="0" width="3" height="3" fill="#c9327a"/><rect x="416" y="3" width="3" height="3" fill="#c9327a"/><rect x="419" y="3" width="3" height="3" fill="#c9327a"/><rect x="422" y="3" width="3" height="3" fill="#c9327a"/><rect x="425" y="3" width="3" height="3" fill="#c9327a"/><rect x="428" y="3" width="3" height="3" fill="#c9327a"/><rect x="431" y="3" width="3" height="3" fill="#c9327a"/><rect x="434" y="3" width="3" height="3" fill="#c9327a"/><rect x="416" y="6" width="3" height="3" fill="#c9327a"/><rect x="419" y="6" width="3" height="3" fill="#c9327a"/><rect x="422" y="6" width="3" height="3" fill="#c9327a"/><rect x="425" y="6" width="3" height="3" fill="#c9327a"/><rect x="428" y="6" width="3" height="3" fill="#c9327a"/><rect x="431" y="6" width="3" height="3" fill="#c9327a"/><rect x="434" y="6" width="3" height="3" fill="#c9327a"/><rect x="419" y="9" width="3" height="3" fill="#c9327a"/><rect x="422" y="9" width="3" height="3" fill="#c9327a"/><rect x="425" y="9" width="3" height="3" fill="#c9327a"/><rect x="428" y="9" width="3" height="3" fill="#c9327a"/><rect x="431" y="9" width="3" height="3" fill="#c9327a"/><rect x="422" y="12" width="3" height="3" fill="#c9327a"/><rect x="425" y="12" width="3" height="3" fill="#c9327a"/><rect x="428" y="12" width="3" height="3" fill="#c9327a"/><rect x="425" y="15" width="3" height="3" fill="#c9327a"/><rect x="419" y="3" width="3" height="3" fill="#fff" opacity=".75"/><rect x="443" y="0" width="3" height="3" fill="#ff3d8b"/><rect x="446" y="0" width="3" height="3" fill="#ff3d8b"/><rect x="452" y="0" width="3" height="3" fill="#ff3d8b"/><rect x="455" y="0" width="3" height="3" fill="#ff3d8b"/><rect x="440" y="3" width="3" height="3" fill="#ff3d8b"/><rect x="443" y="3" width="3" height="3" fill="#ff3d8b"/><rect x="446" y="3" width="3" height="3" fill="#ff3d8b"/><rect x="449" y="3" width="3" height="3" fill="#ff3d8b"/><rect x="452" y="3" width="3" height="3" fill="#ff3d8b"/><rect x="455" y="3" width="3" height="3" fill="#ff3d8b"/><rect x="458" y="3" width="3" height="3" fill="#ff3d8b"/><rect x="440" y="6" width="3" height="3" fill="#ff3d8b"/><rect x="443" y="6" width="3" height="3" fill="#ff3d8b"/><rect x="446" y="6" width="3" height="3" fill="#ff3d8b"/><rect x="449" y="6" width="3" height="3" fill="#ff3d8b"/><rect x="452" y="6" width="3" height="3" fill="#ff3d8b"/><rect x="455" y="6" width="3" height="3" fill="#ff3d8b"/><rect x="458" y="6" width="3" height="3" fill="#ff3d8b"/><rect x="443" y="9" width="3" height="3" fill="#ff3d8b"/><rect x="446" y="9" width="3" height="3" fill="#ff3d8b"/><rect x="449" y="9" width="3" height="3" fill="#ff3d8b"/><rect x="452" y="9" width="3" height="3" fill="#ff3d8b"/><rect x="455" y="9" width="3" height="3" fill="#ff3d8b"/><rect x="446" y="12" width="3" height="3" fill="#ff3d8b"/><rect x="449" y="12" width="3" height="3" fill="#ff3d8b"/><rect x="452" y="12" width="3" height="3" fill="#ff3d8b"/><rect x="449" y="15" width="3" height="3" fill="#ff3d8b"/><rect x="443" y="3" width="3" height="3" fill="#fff" opacity=".75"/><rect x="467" y="0" width="3" height="3" fill="#c9327a"/><rect x="470" y="0" width="3" height="3" fill="#c9327a"/><rect x="476" y="0" width="3" height="3" fill="#c9327a"/><rect x="479" y="0" width="3" height="3" fill="#c9327a"/><rect x="464" y="3" width="3" height="3" fill="#c9327a"/><rect x="467" y="3" width="3" height="3" fill="#c9327a"/><rect x="470" y="3" width="3" height="3" fill="#c9327a"/><rect x="473" y="3" width="3" height="3" fill="#c9327a"/><rect x="476" y="3" width="3" height="3" fill="#c9327a"/><rect x="479" y="3" width="3" height="3" fill="#c9327a"/><rect x="482" y="3" width="3" height="3" fill="#c9327a"/><rect x="464" y="6" width="3" height="3" fill="#c9327a"/><rect x="467" y="6" width="3" height="3" fill="#c9327a"/><rect x="470" y="6" width="3" height="3" fill="#c9327a"/><rect x="473" y="6" width="3" height="3" fill="#c9327a"/><rect x="476" y="6" width="3" height="3" fill="#c9327a"/><rect x="479" y="6" width="3" height="3" fill="#c9327a"/><rect x="482" y="6" width="3" height="3" fill="#c9327a"/><rect x="467" y="9" width="3" height="3" fill="#c9327a"/><rect x="470" y="9" width="3" height="3" fill="#c9327a"/><rect x="473" y="9" width="3" height="3" fill="#c9327a"/><rect x="476" y="9" width="3" height="3" fill="#c9327a"/><rect x="479" y="9" width="3" height="3" fill="#c9327a"/><rect x="470" y="12" width="3" height="3" fill="#c9327a"/><rect x="473" y="12" width="3" height="3" fill="#c9327a"/><rect x="476" y="12" width="3" height="3" fill="#c9327a"/><rect x="473" y="15" width="3" height="3" fill="#c9327a"/><rect x="467" y="3" width="3" height="3" fill="#fff" opacity=".75"/>
</svg>
